<svg id="Grupo_178" data-name="Grupo 178" xmlns="http://www.w3.org/2000/svg" xmlns:xlink="http://www.w3.org/1999/xlink" width="600" height="122" viewBox="0 0 600 122">
  <defs>
    <clipPath id="clip-path">
      <rect id="Rectángulo_1" data-name="Rectángulo 1" width="118.274" height="40.3" fill="none"/>
    </clipPath>
    <clipPath id="clip-path-2">
      <rect id="Rectángulo_18" data-name="Rectángulo 18" width="95" height="34" transform="translate(0 0.348)" fill="#fff"/>
    </clipPath>
  </defs>
  <rect id="Rectángulo_109" data-name="Rectángulo 109" width="600" height="122" fill="#235aa7"/>
  <g id="Grupo_17" data-name="Grupo 17" transform="translate(1076.883 -78.692)">
    <path id="Trazado_66" data-name="Trazado 66" d="M19.5,23.611l7.314,4.165,4.029-2.295v7.394L19.5,39.34,8.155,32.875V25.481l4.03,2.295Zm-11.343.908v-4.57l6.471-3.687v4.571l4.028,2.3-6.47,3.688Zm12.187-1.39,4.03-2.3V16.262l6.469,3.687v4.57l-4.029,2.3Zm-4.873-2.778V15.781l4.031-2.3,4.029,2.3v4.571l-4.03,2.3Zm0-12.927,4.03-2.3,4.03,2.3v7.4l-4.029-2.3-4.031,2.3ZM.843,20.351V7.424L12.185.961l6.47,3.687-4.028,2.3V15.3L7.313,19.468v4.571Zm30.842-.884L24.371,15.3V6.944l-4.03-2.3L26.812.961,38.154,7.424V20.351l-6.469,3.687ZM26.812,0,19.5,4.167,12.185,0,0,6.944V20.832L7.313,25v8.355L19.5,40.3l12.185-6.946V25L39,20.832V6.944Z" transform="translate(-656.156 127.511)" fill="#fff"/>
    <g id="Grupo_15" data-name="Grupo 15" transform="translate(-656.156 127.511)">
      <g id="Grupo_5" data-name="Grupo 5" transform="translate(0 0)" clip-path="url(#clip-path)">
        <path id="Trazado_18" data-name="Trazado 18" d="M91.852,44.947a6.264,6.264,0,0,1-4.586-1.6l.823-.813A4.936,4.936,0,0,0,91.806,43.9c2.233,0,3.41-.765,3.41-2.273,0-1.185-.659-1.718-2.163-1.882l-1.882-.161c-2.281-.185-3.41-1.16-3.41-2.925,0-1.948,1.6-3.179,4.068-3.179A6.707,6.707,0,0,1,95.8,34.666l-.8.789a5.29,5.29,0,0,0-3.173-.951c-1.882,0-2.893.765-2.893,2.157,0,1.184.706,1.718,2.3,1.882l1.835.162c1.881.185,3.315.743,3.315,2.925,0,2.042-1.74,3.319-4.539,3.319" transform="translate(-40.705 -15.618)" fill="#fff"/>
        <path id="Trazado_19" data-name="Trazado 19" d="M109.537,49.271a3.108,3.108,0,0,1-2.14.718h-.564V48.945h.447c1.292,0,1.67-.418,2.069-1.532l.917-2.481-4.14-11.188h1.317l3.411,9.794,3.408-9.794h1.318l-5.267,14.228a2.971,2.971,0,0,1-.777,1.3" transform="translate(-49.502 -15.74)" fill="#fff"/>
        <path id="Trazado_20" data-name="Trazado 20" d="M134.607,37.868c0-2.158-1.082-3.341-3.128-3.341s-3.2,1.206-3.2,3.341v6.941h-1.2V33.621h1.2v1.322a4.649,4.649,0,0,1,6.35-.393,4.119,4.119,0,0,1,1.175,3.11v7.149h-1.2Z" transform="translate(-59.277 -15.618)" fill="#fff"/>
        <path id="Trazado_21" data-name="Trazado 21" d="M155.314,36.407a3.238,3.238,0,0,0-5.878,0,6.007,6.007,0,0,0-.4,2.112h6.678a5.053,5.053,0,0,0-.4-2.112m-2.587,7.472a3.972,3.972,0,0,0,3.128-1.346l.893.7a5.179,5.179,0,0,1-4.092,1.717c-3.127,0-4.819-2-4.819-5.733,0-3.621,1.692-5.733,4.537-5.733s4.539,2.02,4.539,5.454v.533h-7.877c0,2.856,1.269,4.409,3.692,4.409" transform="translate(-68.958 -15.618)" fill="#fff"/>
        <path id="Trazado_22" data-name="Trazado 22" d="M173.043,34.527a3.1,3.1,0,0,0-3.033,3.387v6.895h-1.2V33.621h1.2v1.486a3.9,3.9,0,0,1,3.315-1.625,3.489,3.489,0,0,1,2.727,1.068l-.869.858a2.615,2.615,0,0,0-2.14-.882" transform="translate(-78.741 -15.618)" fill="#fff"/>
        <path id="Trazado_23" data-name="Trazado 23" d="M187.97,34.527c-2.774,0-3.2,2.367-3.2,4.688s.424,4.686,3.2,4.686,3.2-2.366,3.2-4.686-.424-4.688-3.2-4.688m-.235,15.758A4.867,4.867,0,0,1,184,48.8l.8-.79a3.7,3.7,0,0,0,2.939,1.23c2.374,0,3.434-1.648,3.434-3.875v-2a3.783,3.783,0,0,1-3.364,1.579,3.956,3.956,0,0,1-2.774-.974c-1.152-1.138-1.458-2.993-1.458-4.758s.306-3.621,1.458-4.759a3.951,3.951,0,0,1,2.774-.975,3.78,3.78,0,0,1,3.364,1.579V33.621h1.2V45.434c0,2.807-1.693,4.85-4.632,4.85" transform="translate(-85.626 -15.618)" fill="#fff"/>
        <path id="Trazado_24" data-name="Trazado 24" d="M207.364,49.271a3.106,3.106,0,0,1-2.14.718h-.563V48.945h.446c1.294,0,1.669-.418,2.069-1.532l.916-2.481-4.137-11.188h1.315l3.41,9.794,3.411-9.794h1.316L208.14,47.971a2.949,2.949,0,0,1-.775,1.3" transform="translate(-95.134 -15.74)" fill="#fff"/>
      </g>
    </g>
  </g>
  <g id="Grupo_36" data-name="Grupo 36" transform="translate(61 51.653)">
    <path id="Trazado_94" data-name="Trazado 94" d="M18.683,0,3.448,15.347V0H0v27.06H3.448V15.829L6.191,13.16l10.787,13.9h4.151L8.452,10.936,19.646,0Z" transform="translate(0 0)" fill="#fff"/>
    <g id="Grupo_35" data-name="Grupo 35" transform="translate(0 0)">
      <g id="Grupo_34" data-name="Grupo 34" clip-path="url(#clip-path-2)">
        <path id="Trazado_95" data-name="Trazado 95" d="M72.178,43.824c-4.04,0-6.858-2.595-7.043-9.453H78.962v-.222c0-4.856-3.114-8.489-8.192-8.489-5.486,0-9.156,3.892-9.156,9.6,0,6.042,4.152,9.416,9.008,9.416,4.374,0,7.525-2.113,8.415-6.858l-.334-.074c-.667,3.707-3.151,6.079-6.524,6.079M65.136,33.667c0-4.04,1.779-7.6,5.486-7.6,3.448,0,4.967,3.41,5.19,7.822H65.136Z" transform="translate(-41.231 -17.171)" fill="#fff"/>
        <rect id="Rectángulo_17" data-name="Rectángulo 17" width="3.336" height="27.06" transform="translate(91.278 0)" fill="#fff"/>
        <path id="Trazado_96" data-name="Trazado 96" d="M223.743,43.824c-4.041,0-6.858-2.595-7.043-9.453h13.827v-.222c0-4.856-3.114-8.489-8.192-8.489-5.486,0-9.156,3.892-9.156,9.6,0,6.042,4.152,9.416,9.008,9.416,4.374,0,7.525-2.113,8.414-6.858l-.333-.074c-.667,3.707-3.151,6.079-6.524,6.079M216.7,33.667c0-4.04,1.779-7.6,5.486-7.6,3.447,0,4.967,3.41,5.19,7.822H216.7Z" transform="translate(-142.654 -17.171)" fill="#fff"/>
        <path id="Trazado_97" data-name="Trazado 97" d="M142.1,31.718c-2.484,0-3.41-1.372-3.41-4.559V14.444l7.117.111v-.63l-7.117.111v-6.3h-.185l-3.151,1.89v4.411l-4.043.073h-.7l-5.635,16.347.037-.111L118.971,14.11h-3.855l7.6,18.683h1.372a14.184,14.184,0,0,1-1.891,3.6,2.986,2.986,0,0,1-2.558,1.3,5.591,5.591,0,0,1-3-.89l-.964,2.446a5.654,5.654,0,0,0,2.632.667c2.15,0,3.966-1.223,5.709-6.005l.63-1.705v.037l6.577-17.868,4.135.113v12.6c0,3.707,1.705,5.6,5.227,5.6,3.3,0,5.227-1.928,5.6-5.3l-.3-.074c-.259,2.632-1.594,4.411-3.781,4.411" transform="translate(-77.033 -5.176)" fill="#fff"/>
      </g>
    </g>
  </g>
</svg>
